# xmcd
#
# Track frame offsets:
# 150
# 10637
# 19015
# 35507
# 59835
# 72002
# 83905
# 92662
# 103597
# 116775
# 135890
# 146855
# 157707
# 169652
# 180520
# 194415
# 208860
# 221032
# 233160
# 240257
# 254487
#
# Disc length: 3579 seconds
#
#
# Revision: 0
# Processed by: cddbd v1.5PL3 Copyright (c) Steve Scherf et al.
# Submitted via: FreeRIP 2.70 
#
DISCID=1e0df915
DTITLE=fgfdgfd - fdgdsfg
DYEAR=1999
DGENRE=Blues
TTITLE0=dfg
TTITLE1=fgd
TTITLE2=dfg
TTITLE3=dfgd
TTITLE4=fdg
TTITLE5=sgsd
TTITLE6=fgsd
TTITLE7=fgsd
TTITLE8=fgsdfg
TTITLE9=dsg
TTITLE10=sdfgdf
TTITLE11=dfgdsg
TTITLE12=sdfgdf
TTITLE13=sdfgdg
TTITLE14=sdfgfg
TTITLE15=dfgfgds
TTITLE16=sdfgdfgds
TTITLE17=fgdgd
TTITLE18=dgdfg
TTITLE19=dfggf
TTITLE20=dgfff
EXTD=fgfdfg
EXTT0=
EXTT1=
EXTT2=
EXTT3=
EXTT4=
EXTT5=
EXTT6=
EXTT7=
EXTT8=
EXTT9=
EXTT10=
EXTT11=
EXTT12=
EXTT13=
EXTT14=
EXTT15=
EXTT16=
EXTT17=
EXTT18=
EXTT19=
EXTT20=
PLAYORDER=
